<svg xmlns="http://www.w3.org/2000/svg" viewBox="0 0 200 150" width="200" height="150">
  <rect width="200" height="150" fill="#FFF5F5" rx="16"/>
  <!-- Tomatoes -->
  <g transform="translate(45, 20)">
    <circle cx="45" cy="65" r="35" fill="#E53935"/>
    <circle cx="75" cy="70" r="30" fill="#D32F2F"/>
    <ellipse cx="38" cy="55" rx="10" ry="16" fill="#EF5350" opacity="0.6"/>
    <!-- Stems & Calyx -->
    <path d="M45 32c-3-8 2-16 10-18" stroke="#2E7D32" stroke-width="4" fill="none" stroke-linecap="round"/>
    <path d="M45 32l-10-6 8 10-12 6 12 2-6 10 10-8 6 12 2-12 10 6-8-10 10-4z" fill="#388E3C"/>
    <path d="M75 42l-8-5 6 8-10 5 10 2-5 8 8-6 5 10 2-10 8 5-6-8 8-3z" fill="#2E7D32"/>
  </g>
</svg>
